TITLE ""
FILE "1Q_t_0001-0009.mp3" MP3
  TRACK 01 AUDIO
    TITLE "1Q_t_0001-0009_01"
    INDEX 01 00:00:00
  TRACK 02 AUDIO
    TITLE "1Q_t_0001-0009_02"
    INDEX 01 00:02:31
  TRACK 03 AUDIO
    TITLE "1Q_t_0001-0009_03"
    INDEX 01 00:03:32
  TRACK 04 AUDIO
    TITLE "1Q_t_0001-0009_04"
    INDEX 01 00:03:42
  TRACK 05 AUDIO
    TITLE "1Q_t_0001-0009_05"
    INDEX 01 00:06:36
  TRACK 06 AUDIO
    TITLE "1Q_t_0001-0009_06"
    INDEX 01 00:08:14
  TRACK 07 AUDIO
    TITLE "1Q_t_0001-0009_07"
    INDEX 01 00:09:39
  TRACK 08 AUDIO
    TITLE "1Q_t_0001-0009_08"
    INDEX 01 00:10:24
  TRACK 09 AUDIO
    TITLE "1Q_t_0001-0009_09"
    INDEX 01 00:11:30
  TRACK 10 AUDIO
    TITLE "1Q_t_0001-0009_10"
    INDEX 01 00:12:06
  TRACK 11 AUDIO
    TITLE "1Q_t_0001-0009_11"
    INDEX 01 00:13:11
  TRACK 12 AUDIO
    TITLE "1Q_t_0001-0009_12"
    INDEX 01 00:13:40
  TRACK 13 AUDIO
    TITLE "1Q_t_0001-0009_13"
    INDEX 01 00:15:04
  TRACK 14 AUDIO
    TITLE "1Q_t_0001-0009_14"
    INDEX 01 00:15:29
  TRACK 15 AUDIO
    TITLE "1Q_t_0001-0009_15"
    INDEX 01 00:19:29
  TRACK 16 AUDIO
    TITLE "1Q_t_0001-0009_16"
    INDEX 01 00:20:07
  TRACK 17 AUDIO
    TITLE "1Q_t_0001-0009_17"
    INDEX 01 00:21:18
  TRACK 18 AUDIO
    TITLE "1Q_t_0001-0009_18"
    INDEX 01 00:21:50
  TRACK 19 AUDIO
    TITLE "1Q_t_0001-0009_19"
    INDEX 01 00:24:42
  TRACK 20 AUDIO
    TITLE "1Q_t_0001-0009_20"
    INDEX 01 00:24:68
  TRACK 21 AUDIO
    TITLE "1Q_t_0001-0009_21"
    INDEX 01 00:29:16
  TRACK 22 AUDIO
    TITLE "1Q_t_0001-0009_22"
    INDEX 01 00:29:71
  TRACK 23 AUDIO
    TITLE "1Q_t_0001-0009_23"
    INDEX 01 00:31:19
  TRACK 24 AUDIO
    TITLE "1Q_t_0001-0009_24"
    INDEX 01 00:31:50
  TRACK 25 AUDIO
    TITLE "1Q_t_0001-0009_25"
    INDEX 01 00:33:23
  TRACK 26 AUDIO
    TITLE "1Q_t_0001-0009_26"
    INDEX 01 00:33:51
  TRACK 27 AUDIO
    TITLE "1Q_t_0001-0009_27"
    INDEX 01 00:40:33
  TRACK 28 AUDIO
    TITLE "1Q_t_0001-0009_28"
    INDEX 01 00:41:09
  TRACK 29 AUDIO
    TITLE "1Q_t_0001-0009_29"
    INDEX 01 00:42:26
  TRACK 30 AUDIO
    TITLE "1Q_t_0001-0009_30"
    INDEX 01 00:42:54
  TRACK 31 AUDIO
    TITLE "1Q_t_0001-0009_31"
    INDEX 01 00:48:35
  TRACK 32 AUDIO
    TITLE "1Q_t_0001-0009_32"
    INDEX 01 00:48:62
  TRACK 33 AUDIO
    TITLE "1Q_t_0001-0009_33"
    INDEX 01 00:54:22
  TRACK 34 AUDIO
    TITLE "1Q_t_0001-0009_34"
    INDEX 01 00:54:73
  TRACK 35 AUDIO
    TITLE "1Q_t_0001-0009_35"
    INDEX 01 00:56:09
  TRACK 36 AUDIO
    TITLE "1Q_t_0001-0009_36"
    INDEX 01 00:56:40
  TRACK 37 AUDIO
    TITLE "1Q_t_0001-0009_37"
    INDEX 01 01:00:20
  TRACK 38 AUDIO
    TITLE "1Q_t_0001-0009_38"
    INDEX 01 01:00:48
  TRACK 39 AUDIO
    TITLE "1Q_t_0001-0009_39"
    INDEX 01 01:05:04
  TRACK 40 AUDIO
    TITLE "1Q_t_0001-0009_40"
    INDEX 01 01:05:57
  TRACK 41 AUDIO
    TITLE "1Q_t_0001-0009_41"
    INDEX 01 01:06:74
  TRACK 42 AUDIO
    TITLE "1Q_t_0001-0009_42"
    INDEX 01 01:07:26
  TRACK 43 AUDIO
    TITLE "1Q_t_0001-0009_43"
    INDEX 01 01:08:51
  TRACK 44 AUDIO
    TITLE "1Q_t_0001-0009_44"
    INDEX 01 01:09:06
  TRACK 45 AUDIO
    TITLE "1Q_t_0001-0009_45"
    INDEX 01 01:14:67
  TRACK 46 AUDIO
    TITLE "1Q_t_0001-0009_46"
    INDEX 01 01:15:51
  TRACK 47 AUDIO
    TITLE "1Q_t_0001-0009_47"
    INDEX 01 01:17:01
  TRACK 48 AUDIO
    TITLE "1Q_t_0001-0009_48"
    INDEX 01 01:17:29
  TRACK 49 AUDIO
    TITLE "1Q_t_0001-0009_49"
    INDEX 01 01:21:03
  TRACK 50 AUDIO
    TITLE "1Q_t_0001-0009_50"
    INDEX 01 01:21:28
  TRACK 51 AUDIO
    TITLE "1Q_t_0001-0009_51"
    INDEX 01 01:26:04
  TRACK 52 AUDIO
    TITLE "1Q_t_0001-0009_52"
    INDEX 01 01:26:59
  TRACK 53 AUDIO
    TITLE "1Q_t_0001-0009_53"
    INDEX 01 01:28:01
  TRACK 54 AUDIO
    TITLE "1Q_t_0001-0009_54"
    INDEX 01 01:28:28
  TRACK 55 AUDIO
    TITLE "1Q_t_0001-0009_55"
    INDEX 01 01:30:06
  TRACK 56 AUDIO
    TITLE "1Q_t_0001-0009_56"
    INDEX 01 01:30:35
  TRACK 57 AUDIO
    TITLE "1Q_t_0001-0009_57"
    INDEX 01 01:35:01
  TRACK 58 AUDIO
    TITLE "1Q_t_0001-0009_58"
    INDEX 01 01:35:56
  TRACK 59 AUDIO
    TITLE "1Q_t_0001-0009_59"
    INDEX 01 01:36:49
  TRACK 60 AUDIO
    TITLE "1Q_t_0001-0009_60"
    INDEX 01 01:37:06
  TRACK 61 AUDIO
    TITLE "1Q_t_0001-0009_61"
    INDEX 01 01:38:44
  TRACK 62 AUDIO
    TITLE "1Q_t_0001-0009_62"
    INDEX 01 01:38:72
  TRACK 63 AUDIO
    TITLE "1Q_t_0001-0009_63"
    INDEX 01 01:43:61
